<mxfile host="app.diagrams.net" modified="2023-09-02T23:43:21.136Z" agent="Mozilla/5.0 (Macintosh; Intel Mac OS X 10_15_7) AppleWebKit/537.36 (KHTML, like Gecko) Chrome/116.0.0.0 Safari/537.36" version="21.7.2" etag="byH4GdSC4auwEObaJhxS" type="github">
  <diagram name="第 1 页" id="lHTVeV9BX9nzEeF748tZ">
    <mxGraphModel>
      <root>
        <mxCell id="0" />
        <mxCell id="1" parent="0" />
      </root>
    </mxGraphModel>
  </diagram>
</mxfile>
